<?xml version="1.0" encoding="utf-8"?>
<!-- Generator: Adobe Illustrator 25.3.1, SVG Export Plug-In . SVG Version: 6.00 Build 0)  -->
<svg version="1.1" id="Layer_1" xmlns="http://www.w3.org/2000/svg" xmlns:xlink="http://www.w3.org/1999/xlink" x="0px" y="0px"
	 viewBox="0 0 323.64 369.52" style="enable-background:new 0 0 323.64 369.52;" xml:space="preserve">
<style type="text/css">
	.st0{fill:none;stroke:#F15B25;stroke-width:6.6604;stroke-linecap:round;stroke-miterlimit:10;}
	.st1{fill:none;stroke:#2BACE2;stroke-width:6.6604;stroke-linecap:round;stroke-miterlimit:10;}
	.st2{fill:none;stroke:#B2D236;stroke-width:6.6604;stroke-linecap:round;stroke-miterlimit:10;}
	.st3{fill:none;stroke:#EC2227;stroke-width:6.6604;stroke-linecap:round;stroke-miterlimit:10;}
	.st4{fill:none;stroke:#939598;stroke-width:6.6604;stroke-linecap:round;stroke-miterlimit:10;}
	.st5{fill:none;stroke:#2AACE2;stroke-width:6.6604;stroke-linecap:round;stroke-miterlimit:10;}
	.st6{fill:none;stroke:#FCEE23;stroke-width:6.6604;stroke-linecap:round;stroke-miterlimit:10;}
	.st7{fill:none;stroke:#EC2027;stroke-width:6.6604;stroke-linecap:round;stroke-miterlimit:10;}
	.st8{fill:none;stroke:#AB4B9C;stroke-width:6.6604;stroke-linecap:round;stroke-miterlimit:10;}
	.st9{fill:none;stroke:#AB4A9C;stroke-width:6.6604;stroke-linecap:round;stroke-miterlimit:10;}
	.st10{fill:none;stroke:#B2D236;stroke-width:7.3104;stroke-linecap:round;stroke-miterlimit:10;}
	.st11{fill:none;stroke:#FCEE23;stroke-width:7.3104;stroke-linecap:round;stroke-miterlimit:10;}
	.st12{fill:none;stroke:#2AACE2;stroke-width:7.3104;stroke-linecap:round;stroke-miterlimit:10;}
	.st13{fill:none;stroke:#FCEE21;stroke-width:6.6604;stroke-linecap:round;stroke-miterlimit:10;}
	.st14{fill:none;stroke:#F15B24;stroke-width:6.6604;stroke-linecap:round;stroke-miterlimit:10;}
</style>
<g>
	<line class="st0" x1="3.66" y1="3.33" x2="62.44" y2="3.33"/>
	<line class="st1" x1="74.48" y1="3.33" x2="195.16" y2="3.33"/>
	<line class="st0" x1="3.66" y1="19.21" x2="62.44" y2="19.21"/>
	<line class="st1" x1="74.48" y1="19.21" x2="132.59" y2="19.21"/>
	<line class="st0" x1="3.66" y1="35.08" x2="62.44" y2="35.08"/>
	<line class="st1" x1="74.48" y1="35.08" x2="159.41" y2="35.08"/>
	<line class="st2" x1="3.66" y1="286.81" x2="62.44" y2="286.81"/>
	<line class="st1" x1="74.48" y1="286.81" x2="195.16" y2="286.81"/>
	<line class="st3" x1="21.53" y1="302.68" x2="80.32" y2="302.68"/>
	<line class="st4" x1="92.36" y1="302.68" x2="114.71" y2="302.68"/>
	<line class="st5" x1="39.41" y1="318.56" x2="98.2" y2="318.56"/>
	<line class="st4" x1="110.23" y1="318.56" x2="139.74" y2="318.56"/>
	<line class="st6" x1="152.14" y1="318.56" x2="190.58" y2="318.56"/>
	<line class="st7" x1="39.41" y1="193.85" x2="98.2" y2="193.85"/>
	<line class="st4" x1="110.23" y1="193.85" x2="195.16" y2="193.85"/>
	<line class="st4" x1="21.53" y1="209.73" x2="48.14" y2="209.73"/>
	<line class="st4" x1="21.53" y1="241.49" x2="48.14" y2="241.49"/>
	<line class="st4" x1="21.53" y1="350.31" x2="48.14" y2="350.31"/>
	<line class="st8" x1="3.66" y1="366.19" x2="30.26" y2="366.19"/>
	<line class="st9" x1="3.66" y1="257.36" x2="30.26" y2="257.36"/>
	<line class="st10" x1="3.66" y1="66.84" x2="74.48" y2="66.84"/>
	<line class="st1" x1="87.89" y1="66.84" x2="213.04" y2="66.84"/>
	<line class="st3" x1="39.41" y1="82.72" x2="98.2" y2="82.72"/>
	<line class="st4" x1="110.23" y1="82.72" x2="129.01" y2="82.72"/>
	<line class="st5" x1="74.48" y1="98.59" x2="141.53" y2="98.59"/>
	<line class="st4" x1="38.72" y1="114.47" x2="61.07" y2="114.47"/>
	<line class="st8" x1="3.66" y1="130.35" x2="26.69" y2="130.35"/>
	<line class="st10" x1="3.66" y1="162.1" x2="74.48" y2="162.1"/>
	<line class="st11" x1="118.51" y1="162.1" x2="189.34" y2="162.1"/>
	<line class="st12" x1="202.26" y1="162.1" x2="273.08" y2="162.1"/>
	<line class="st4" x1="87.89" y1="162.1" x2="105.77" y2="162.1"/>
	<line class="st4" x1="284.55" y1="162.1" x2="320.31" y2="162.1"/>
	<line class="st5" x1="39.41" y1="177.98" x2="62.44" y2="177.98"/>
	<line class="st4" x1="74.48" y1="177.98" x2="111.13" y2="177.98"/>
	<line class="st8" x1="226.94" y1="66.84" x2="239.46" y2="66.84"/>
	<line class="st4" x1="153.93" y1="98.59" x2="220.98" y2="98.59"/>
	<line class="st0" x1="235.38" y1="98.59" x2="302.43" y2="98.59"/>
	<line class="st13" x1="208.03" y1="193.85" x2="266.82" y2="193.85"/>
	<line class="st7" x1="39.41" y1="225.61" x2="85.69" y2="225.61"/>
	<line class="st14" x1="97.72" y1="225.61" x2="182.65" y2="225.61"/>
	<line class="st13" x1="193.73" y1="225.61" x2="223.91" y2="225.61"/>
	<line class="st8" x1="207.28" y1="286.81" x2="219.79" y2="286.81"/>
	<line class="st4" x1="205.31" y1="318.56" x2="261.64" y2="318.56"/>
	<line class="st5" x1="39.41" y1="334.44" x2="98.2" y2="334.44"/>
	<line class="st4" x1="110.23" y1="334.44" x2="175.5" y2="334.44"/>
	<line class="st6" x1="187.89" y1="334.44" x2="226.34" y2="334.44"/>
</g>
</svg>
