<?xml version="1.0" encoding="utf-8"?>
<!-- Generator: Adobe Illustrator 25.3.1, SVG Export Plug-In . SVG Version: 6.00 Build 0)  -->
<svg version="1.1" id="Layer_1" xmlns="http://www.w3.org/2000/svg" xmlns:xlink="http://www.w3.org/1999/xlink" x="0px" y="0px"
	 viewBox="0 0 122.93 34.86" style="enable-background:new 0 0 122.93 34.86;" xml:space="preserve">
<style type="text/css">
	.st0{fill:#FCEE21;}
	.st1{fill:#FFFFFF;}
</style>
<g>
	<g>
		<g>
			<path class="st0" d="M7.62,4.1c1.29,0.72,2.57,1.45,3.83,2.19s2.53,1.46,3.79,2.19c-0.37,0.25-0.74,0.48-1.1,0.68
				C13.78,9.36,13.4,9.57,13,9.79c-0.88-0.5-1.76-1.01-2.66-1.53S8.56,7.23,7.68,6.73c-0.92,0.5-1.82,1.01-2.72,1.54
				s-1.8,1.06-2.72,1.58v6.19c0.22,0.12,0.45,0.25,0.69,0.38s0.47,0.25,0.69,0.38c0.67,0.38,1.33,0.77,2,1.19s1.33,0.81,2,1.19
				c0.92-0.53,1.82-1.05,2.72-1.56c0.9-0.51,1.78-1.03,2.66-1.56l2.25,1.31c-1.26,0.75-2.52,1.49-3.78,2.22s-2.52,1.47-3.78,2.22
				c-1.32-0.75-2.61-1.49-3.86-2.22C2.57,18.84,1.29,18.1,0,17.35v-4.69V8.54c1.26-0.75,2.53-1.49,3.81-2.22
				C5.09,5.59,6.36,4.85,7.62,4.1z"/>
			<path class="st0" d="M24.72,4.44c1.32,0.72,2.61,1.46,3.86,2.2c1.26,0.74,2.53,1.49,3.82,2.24c-0.03,1.42-0.03,2.83-0.02,4.23
				s0.02,2.83,0.02,4.27v0.25c-0.03,0.07-0.09,0.13-0.2,0.19s-0.21,0.1-0.3,0.12c-1.17,0.69-2.35,1.38-3.54,2.06
				s-2.39,1.37-3.58,2.06c-1.29-0.72-2.57-1.45-3.84-2.2s-2.55-1.49-3.84-2.24c0.03-1.51,0.03-2.94,0.02-4.27s-0.02-2.66-0.02-3.98
				v-0.5c0.03-0.03,0.1-0.08,0.22-0.16c0.12-0.08,0.21-0.13,0.28-0.16c0.57-0.32,1.12-0.63,1.66-0.94c0.53-0.31,1.09-0.62,1.66-0.94
				c0.67-0.4,1.31-0.78,1.94-1.15S24.1,4.81,24.72,4.44z M19.35,10.19v6.19c0.92,0.53,1.82,1.05,2.72,1.56s1.78,1.03,2.66,1.56
				c0.82-0.47,1.62-0.93,2.4-1.38s1.56-0.9,2.35-1.38c0.03-0.01,0.08-0.04,0.15-0.07c0.07-0.04,0.14-0.07,0.22-0.11
				s0.15-0.09,0.21-0.14s0.1-0.09,0.11-0.11c0.03-0.07,0.03-0.18,0.02-0.33s-0.02-0.29-0.02-0.42v-5.37
				c-0.88-0.53-1.77-1.05-2.69-1.58s-1.81-1.04-2.69-1.54c-0.92,0.5-1.82,1.01-2.72,1.54C21.17,9.13,20.27,9.66,19.35,10.19z
				 M27.1,11.94c0,0.44-0.01,0.88-0.02,1.31s-0.01,0.87,0.02,1.31c-0.38,0.25-0.76,0.49-1.16,0.71s-0.78,0.44-1.16,0.67
				c-0.4-0.22-0.79-0.44-1.18-0.66s-0.76-0.43-1.13-0.66c-0.03-0.5-0.04-0.95-0.04-1.36s0.01-0.85,0.04-1.32
				c0.35-0.22,0.73-0.45,1.13-0.69s0.8-0.46,1.18-0.69c0.38,0.22,0.76,0.44,1.16,0.67C26.34,11.45,26.72,11.69,27.1,11.94z
				 M22.47,14.56c0.35,0.19,0.69,0.39,1.02,0.59s0.66,0.38,0.98,0.53c0.07,0.03,0.12,0.07,0.16,0.11c0.04,0.05,0.07,0.07,0.09,0.07
				V13.3c-0.35-0.25-0.71-0.48-1.1-0.69c-0.39-0.21-0.77-0.44-1.15-0.69V14.56z M24.72,10.62c-0.35,0.22-0.71,0.44-1.07,0.66
				c-0.37,0.21-0.74,0.43-1.11,0.66c0.35,0.22,0.71,0.44,1.1,0.66c0.39,0.22,0.77,0.43,1.15,0.66c0.35-0.22,0.71-0.44,1.09-0.66
				c0.38-0.21,0.75-0.43,1.09-0.66c-0.38-0.22-0.74-0.44-1.1-0.66C25.51,11.06,25.13,10.84,24.72,10.62z M24.79,13.31v2.56
				c0.38-0.22,0.76-0.44,1.15-0.66s0.76-0.43,1.1-0.66c0-0.44,0.01-0.88,0.02-1.31c0.01-0.43,0.01-0.87-0.02-1.31
				c-0.38,0.25-0.75,0.48-1.12,0.69C25.54,12.83,25.16,13.06,24.79,13.31z"/>
			<path class="st0" d="M48.05,1.31C48.73,0.88,49.48,0.44,50.3,0v0.06c-0.03,1.32-0.03,2.71-0.02,4.16s0.02,2.9,0.02,4.34v9.06
				c-1.29,0.75-2.57,1.49-3.84,2.22s-2.55,1.47-3.84,2.22c-0.94-0.57-1.89-1.13-2.84-1.69c-0.95-0.56-1.9-1.1-2.84-1.62
				c-0.35-0.19-0.68-0.38-0.99-0.56s-0.63-0.37-0.95-0.56V8.81l1.88-1.12c0.97-0.57,1.94-1.12,2.91-1.66
				c0.96-0.53,1.93-1.07,2.91-1.59c0.88,0.5,1.75,1.01,2.63,1.53S47.1,7,48.05,7.5V1.31z M42.61,7c-0.92,0.53-1.81,1.05-2.69,1.56
				c-0.88,0.51-1.77,1.04-2.69,1.56v6.19c0.92,0.53,1.82,1.05,2.72,1.58s1.8,1.04,2.72,1.54c0.88-0.53,1.76-1.05,2.66-1.56
				s1.8-1.03,2.72-1.56v-6.19c-0.92-0.53-1.82-1.05-2.72-1.58C44.43,8.01,43.53,7.5,42.61,7z"/>
			<path class="st0" d="M68.33,8.48c-1.26,0.75-2.53,1.49-3.79,2.22c-1.26,0.73-2.54,1.47-3.83,2.22c-0.35-0.22-0.71-0.44-1.07-0.66
				c-0.37-0.21-0.74-0.43-1.11-0.66c0.88-0.53,1.76-1.05,2.66-1.56s1.78-1.03,2.66-1.56c-0.5-0.32-1.01-0.62-1.53-0.91
				C61.8,7.29,61.29,7,60.79,6.73c-0.92,0.5-1.82,1.01-2.72,1.54s-1.8,1.06-2.72,1.58v6.19c0.92,0.53,1.82,1.05,2.72,1.56
				s1.78,1.03,2.66,1.56c0.92-0.53,1.81-1.05,2.69-1.56c0.87-0.51,1.77-1.03,2.69-1.56l2.25,1.31c-1.26,0.75-2.53,1.49-3.79,2.21
				C63.28,20.28,62,21,60.71,21.73c-1.26-0.72-2.53-1.45-3.79-2.19c-1.26-0.74-2.54-1.46-3.83-2.19V8.54
				c1.07-0.62,2.17-1.26,3.29-1.91c1.12-0.65,2.24-1.28,3.33-1.91c0.15-0.1,0.31-0.2,0.47-0.3c0.16-0.1,0.32-0.19,0.47-0.26
				c0.1-0.03,0.2-0.01,0.3,0.05c0.1,0.06,0.23,0.13,0.38,0.2c1.17,0.69,2.34,1.38,3.53,2.05C66.05,7.14,67.21,7.81,68.33,8.48z"/>
		</g>
		<g>
			<path class="st1" d="M91.37,20.22c2.1,0,3.58-0.86,4.82-2.16l1.42,1.27c-1.54,1.71-3.4,2.87-6.3,2.87c-4.2,0-7.63-3.22-7.63-7.98
				c0-4.44,3.11-7.98,7.33-7.98c4.52,0,7.13,3.61,7.13,8.1c0,0.21,0,0.44-0.03,0.8H85.98C86.31,18.36,88.68,20.22,91.37,20.22z
				 M95.83,13.3c-0.27-2.78-1.86-5.15-4.88-5.15c-2.63,0-4.64,2.19-4.97,5.15C85.98,13.3,95.83,13.3,95.83,13.3z"/>
			<path class="st1" d="M99.9,19.9l1.15-1.63c1.66,1.24,3.49,1.95,5.29,1.95c1.83,0,3.17-0.95,3.17-2.43v-0.06
				c0-1.54-1.8-2.13-3.82-2.69c-2.4-0.68-5.06-1.51-5.06-4.32v-0.06c0-2.63,2.19-4.38,5.21-4.38c1.86,0,3.93,0.65,5.5,1.69
				l-1.04,1.71c-1.42-0.92-3.05-1.48-4.52-1.48c-1.8,0-2.96,0.95-2.96,2.22v0.06c0,1.45,1.89,2.01,3.93,2.63
				c2.37,0.71,4.91,1.63,4.91,4.38v0.06c0,2.9-2.4,4.58-5.44,4.58C104.04,22.14,101.62,21.29,99.9,19.9z"/>
			<path class="st1" d="M115.81,17.8V8.57h-2.13V6.56h2.13V1.95h2.28v4.61h4.85v2.01h-4.85v8.93c0,1.86,1.04,2.54,2.57,2.54
				c0.77,0,1.42-0.15,2.22-0.53v1.95c-0.8,0.41-1.66,0.65-2.75,0.65C117.67,22.11,115.81,20.9,115.81,17.8z"/>
		</g>
		<g>
			<g>
				<path class="st1" d="M71.26,0.56h11.36v2.16H73.6v7.39h7.7v2.13h-7.7v9.02h-2.34V0.56z"/>
			</g>
		</g>
	</g>
	<g>
		<path class="st1" d="M25.15,29.88h0.24v4.69h2.96v0.22h-3.19L25.15,29.88L25.15,29.88z"/>
		<path class="st1" d="M29.27,34.06l0.16-0.18c0.52,0.49,1.09,0.74,1.81,0.74c0.85,0,1.4-0.46,1.4-1.08v-0.01
			c0-0.57-0.33-0.88-1.51-1.13c-1.2-0.24-1.67-0.62-1.67-1.32v-0.01c0-0.7,0.67-1.27,1.59-1.27c0.67,0,1.2,0.21,1.67,0.57
			l-0.15,0.19c-0.45-0.36-0.96-0.55-1.53-0.55c-0.8,0-1.34,0.48-1.34,1.03v0.01c0,0.57,0.33,0.88,1.52,1.13
			c1.22,0.24,1.66,0.64,1.66,1.32v0.01c0,0.76-0.65,1.32-1.65,1.32C30.46,34.85,29.82,34.58,29.27,34.06z"/>
		<path class="st1" d="M34.27,32.66v-2.79h0.24v2.77c0,1.3,0.7,1.99,1.76,1.99c1.06,0,1.74-0.66,1.74-1.97v-2.79h0.24v2.77
			c0,1.46-0.81,2.21-1.99,2.21C35.09,34.86,34.27,34.11,34.27,32.66z"/>
		<path class="st1" d="M42.21,29.88h1.6c1.54,0,2.61,1.06,2.61,2.44v0.01c0,1.38-1.06,2.45-2.61,2.45h-1.6V29.88z M43.81,34.56
			c1.41,0,2.35-0.98,2.35-2.22v-0.01c0-1.24-0.95-2.23-2.36-2.23h-1.36v4.47h1.37V34.56z"/>
		<path class="st1" d="M49.49,29.84h0.22l2.33,4.94h-0.26l-0.67-1.43h-3.03l-0.67,1.43h-0.25L49.49,29.84z M51.01,33.13l-1.41-3.01
			l-1.41,3.01H51.01z"/>
		<path class="st1" d="M53.98,30.09h-1.74v-0.22h3.73v0.22h-1.75v4.69h-0.24C53.98,34.78,53.98,30.09,53.98,30.09z"/>
		<path class="st1" d="M58.48,29.84h0.22l2.33,4.94h-0.26l-0.67-1.43h-3.03l-0.67,1.43h-0.25L58.48,29.84z M60,33.13l-1.41-3.01
			l-1.41,3.01H60z"/>
		<path class="st1" d="M64.29,34.06l0.16-0.18c0.52,0.49,1.09,0.74,1.81,0.74c0.85,0,1.4-0.46,1.4-1.08v-0.01
			c0-0.57-0.33-0.88-1.51-1.13c-1.2-0.24-1.67-0.62-1.67-1.32v-0.01c0-0.7,0.67-1.27,1.59-1.27c0.67,0,1.2,0.21,1.67,0.57
			l-0.15,0.19c-0.45-0.36-0.96-0.55-1.53-0.55c-0.8,0-1.34,0.48-1.34,1.03v0.01c0,0.57,0.33,0.88,1.52,1.13
			c1.22,0.24,1.66,0.64,1.66,1.32v0.01c0,0.76-0.65,1.32-1.65,1.32C65.48,34.85,64.85,34.58,64.29,34.06z"/>
		<path class="st1" d="M69.16,32.34L69.16,32.34c0-1.39,1.02-2.55,2.42-2.55c0.91,0,1.41,0.34,1.88,0.78l-0.17,0.17
			c-0.41-0.39-0.9-0.73-1.72-0.73c-1.25,0-2.17,1.04-2.17,2.31v0.01c0,1.27,0.94,2.31,2.18,2.31c0.76,0,1.31-0.34,1.74-0.79
			l0.17,0.16c-0.46,0.47-1.06,0.84-1.93,0.84C70.18,34.86,69.16,33.73,69.16,32.34z"/>
		<path class="st1" d="M74.96,29.88h0.24v4.9h-0.24V29.88z"/>
		<path class="st1" d="M77.26,29.88h3.45v0.22H77.5v2.11h2.91v0.22H77.5v2.14h3.25v0.22h-3.49V29.88z"/>
		<path class="st1" d="M82.2,29.88h0.22l3.59,4.5v-4.5h0.23v4.9h-0.19l-3.61-4.53v4.53H82.2V29.88z"/>
		<path class="st1" d="M87.75,32.34L87.75,32.34c0-1.39,1.02-2.55,2.42-2.55c0.91,0,1.41,0.34,1.88,0.78l-0.17,0.17
			c-0.41-0.39-0.9-0.73-1.72-0.73c-1.25,0-2.17,1.04-2.17,2.31v0.01c0,1.27,0.94,2.31,2.18,2.31c0.76,0,1.31-0.34,1.74-0.79
			l0.17,0.16c-0.46,0.47-1.06,0.84-1.93,0.84C88.77,34.86,87.75,33.73,87.75,32.34z"/>
		<path class="st1" d="M93.5,29.88h3.45v0.22h-3.21v2.11h2.91v0.22h-2.91v2.14h3.25v0.22H93.5V29.88z"/>
	</g>
</g>
</svg>
