<?xml version="1.0" encoding="utf-8"?>
<!-- Generator: Adobe Illustrator 25.3.1, SVG Export Plug-In . SVG Version: 6.00 Build 0)  -->
<svg version="1.1" id="Layer_1" xmlns="http://www.w3.org/2000/svg" xmlns:xlink="http://www.w3.org/1999/xlink" x="0px" y="0px"
	 viewBox="0 0 678.07 138.57" style="enable-background:new 0 0 678.07 138.57;" xml:space="preserve">
<style type="text/css">
	.st0{fill:#FFFFFF;}
</style>
<g>
	<g>
		<path class="st0" d="M0.02,72.8L10.28,4.27c0.1-0.81,0.71-1.32,1.53-1.32h1.42c0.81,0,1.63,0.51,1.93,1.12l25.01,47.48
			c0.41,0.81,0.92,1.12,1.32,1.12c0.51,0,0.91-0.31,1.32-1.12L67.83,4.07c0.3-0.61,1.12-1.12,1.93-1.12h1.42
			c0.71,0,1.42,0.51,1.53,1.32l1.42,9.96c0.1,0.81,0,1.83-0.41,2.54L44.14,72.9c-0.41,0.71-1.12,1.22-1.93,1.22h-1.42
			c-0.81,0-1.53-0.51-1.93-1.22L19.33,35.99c-0.81-1.53-1.53-1.32-1.73,0.3l-5.59,36.5c-0.1,0.81-0.71,1.32-1.53,1.32H1.13
			C0.32,74.12-0.09,73.61,0.02,72.8z M68.34,48.7l7.93-15.15c0.41-0.71,0.71-0.61,0.81,0.2l5.9,39.04c0.1,0.81-0.3,1.32-1.12,1.32
			h-9.35c-0.81,0-1.42-0.51-1.53-1.32l-3.15-21.55C67.73,50.43,67.93,49.41,68.34,48.7z"/>
		<path class="st0" d="M94.06,72.9l32.13-70.05c0.2-0.51,0.92-0.91,1.53-0.91c0.61,0,1.22,0.41,1.42,0.91l32.13,70.05
			c0.3,0.71,0,1.22-0.81,1.22h-9.96c-0.81,0-1.63-0.51-1.93-1.22l-2.85-6.2c-0.71-1.53-2.34-2.54-4.07-2.54h-20.54
			c-0.81,0-1.12-0.51-0.81-1.22l4.17-8.95c0.3-0.71,1.02-1.22,1.83-1.22h10.17c1.73,0,2.34-1.02,1.63-2.64l-9.15-19.93
			c-0.41-0.81-0.81-1.22-1.22-1.22s-0.81,0.41-1.22,1.22l-19.72,42.7c-0.3,0.71-1.12,1.22-1.83,1.22H94.88
			C94.06,74.12,93.76,73.61,94.06,72.9z"/>
		<path class="st0" d="M174.49,2.95h9.56c0.81,0,1.32,0.51,1.32,1.32v28.16c0,1.02,0.2,1.42,0.61,1.42c0.3,0,0.71-0.2,1.22-0.81
			l23.28-29.08c0.51-0.61,1.32-1.02,2.13-1.02h11.59c0.81,0,1.02,0.41,0.51,1.02L187.2,51.04c-1.12,1.32-1.83,3.36-1.83,5.08V72.8
			c0,0.81-0.51,1.32-1.32,1.32h-9.56c-0.81,0-1.32-0.51-1.32-1.32V4.27C173.16,3.46,173.67,2.95,174.49,2.95z M202.14,48.29
			l5.59-7.02c0.51-0.61,1.22-0.61,1.63,0l24.71,31.82c0.41,0.61,0.2,1.02-0.61,1.02h-12c-0.81,0-1.63-0.41-2.13-1.02l-17.28-22.67
			C201.53,49.82,201.63,48.9,202.14,48.29z"/>
		<path class="st0" d="M244.54,13.01V4.27c0-0.81,0.51-1.32,1.32-1.32h43.41c0.81,0,1.32,0.51,1.32,1.32v8.74
			c0,0.81-0.51,1.32-1.32,1.32h-43.41C245.05,14.34,244.54,13.83,244.54,13.01z M244.54,34.16c0-0.81,0.51-1.32,1.32-1.32h43.41
			c0.81,0,1.32,0.51,1.32,1.32v8.74c0,0.81-0.51,1.32-1.32,1.32h-43.41c-0.81,0-1.32-0.51-1.32-1.32V34.16z M245.86,62.73h43.41
			c0.81,0,1.32,0.51,1.32,1.32v8.74c0,0.81-0.51,1.32-1.32,1.32h-43.41c-0.81,0-1.32-0.51-1.32-1.32v-8.74
			C244.54,63.24,245.05,62.73,245.86,62.73z"/>
		<path class="st0" d="M310.52,72.8V3.46c0-0.31,0.2-0.51,0.51-0.51h19.11c2.85,0,4.58,0,5.8,0.1c24.4,2.24,27.55,30.4,9.86,39.86
			c-1.53,0.81-1.93,2.13-1.02,3.46L363.5,73c0.51,0.71,0.2,1.12-0.61,1.12h-11.9c-0.81,0-1.63-0.41-2.14-1.12l-18.2-26.23
			c-0.41-0.61-0.81-1.53-0.81-2.34v-8.85c0-0.81,0.51-1.32,1.32-1.32h1.83c15.45,0,15.35-19.83,0-19.83h-7.42
			c-1.73,0-2.85,1.22-2.85,2.95V72.8c0,0.81-0.51,1.32-1.32,1.32h-9.56C311.03,74.12,310.52,73.61,310.52,72.8z"/>
		<path class="st0" d="M372.54,63.85l7.42-5.8c0.61-0.41,1.32-0.41,1.83,0.2c4.47,5.19,11.29,6.81,17.89,6.81
			c5.39,0,13.42-2.03,13.42-8.74c0-13.62-39.55-12.2-39.55-35.48C373.56,6.91,385.15,0,397.96,0c8.74,0,17.28,3.96,23.99,9.56
			c0.61,0.51,0.61,1.32,0.1,1.83l-6.2,7.02c-0.61,0.61-1.32,0.61-1.83,0.1c-4.58-4.07-10.27-6.51-16.47-6.51c-6.1,0-12,2.14-12,9.25
			c0,12.2,39.55,10.57,39.55,35.48c0,13.83-13.62,20.33-25.82,20.33c-10.06,0-20.44-3.46-26.94-11.39
			C371.83,65.07,371.93,64.36,372.54,63.85z"/>
		<path class="st0" d="M440.56,38.84c0-0.81,0.51-1.32,1.32-1.32h22.16c15.45,0,15.35-23.08,0-23.08h-22.16
			c-0.81,0-1.32-0.51-1.32-1.32V4.27c0-0.81,0.51-1.32,1.32-1.32h22.16c16.06,0,24.1,11.49,24.1,23.08
			c0,10.78-7.02,21.66-21.15,22.88c-1.22,0.1-2.95,0.1-5.79,0.1h-5.59c-1.73,0-2.85,1.22-2.85,2.85V72.8c0,0.81-0.51,1.32-1.32,1.32
			h-9.56c-0.81,0-1.32-0.51-1.32-1.32V38.84z"/>
		<path class="st0" d="M485.81,72.9l32.13-70.05c0.2-0.51,0.92-0.91,1.53-0.91c0.61,0,1.22,0.41,1.42,0.91l32.13,70.05
			c0.31,0.71,0,1.22-0.81,1.22h-9.96c-0.81,0-1.63-0.51-1.93-1.22l-2.85-6.2c-0.71-1.53-2.34-2.54-4.07-2.54h-20.54
			c-0.81,0-1.12-0.51-0.81-1.22l4.17-8.95c0.3-0.71,1.02-1.22,1.83-1.22h10.17c1.73,0,2.34-1.02,1.63-2.64l-9.15-19.93
			c-0.41-0.81-0.81-1.22-1.22-1.22s-0.81,0.41-1.22,1.22l-19.73,42.7c-0.3,0.71-1.12,1.22-1.83,1.22h-10.07
			C485.81,74.12,485.5,73.61,485.81,72.9z"/>
		<path class="st0" d="M595.92,1.42c7.12,0,13.93,2.85,20.13,6.4c0.71,0.41,0.71,1.22,0.3,1.83l-5.49,7.83
			c-0.51,0.71-1.12,0.81-1.83,0.31c-3.05-2.24-7.63-4.27-13.01-4.27c-32.03,0-32.03,50.02,0,50.02c6.61,0,10.68-2.03,13.12-4.07
			c0.61-0.51,1.32-0.41,1.73,0.2l5.59,7.73c0.41,0.61,0.31,1.42-0.31,1.83c-5.49,4.27-11.39,6.4-20.23,6.4
			c-24.5,0-36.7-18.61-36.7-37.11C559.22,19.93,571.42,1.42,595.92,1.42z M587.58,37.72L595,30.4c0.61-0.61,1.22-0.51,1.83,0
			l7.42,7.32c0.61,0.61,0.61,1.32,0,1.93l-7.42,7.32c-0.61,0.51-1.22,0.61-1.83,0l-7.42-7.32
			C586.97,39.14,586.97,38.23,587.58,37.72z"/>
		<path class="st0" d="M632.01,13.01V4.27c0-0.81,0.51-1.32,1.32-1.32h43.41c0.81,0,1.32,0.51,1.32,1.32v8.74
			c0,0.81-0.51,1.32-1.32,1.32h-43.41C632.52,14.34,632.01,13.83,632.01,13.01z M632.01,34.16c0-0.81,0.51-1.32,1.32-1.32h43.41
			c0.81,0,1.32,0.51,1.32,1.32v8.74c0,0.81-0.51,1.32-1.32,1.32h-43.41c-0.81,0-1.32-0.51-1.32-1.32V34.16z M633.34,62.73h43.41
			c0.81,0,1.32,0.51,1.32,1.32v8.74c0,0.81-0.51,1.32-1.32,1.32h-43.41c-0.81,0-1.32-0.51-1.32-1.32v-8.74
			C632.01,63.24,632.52,62.73,633.34,62.73z"/>
	</g>
	<g>
		<path class="st0" d="M171.9,117.06h1.03v20.2h12.74v0.94H171.9V117.06z"/>
		<path class="st0" d="M189.66,135.12l0.69-0.75c2.24,2.11,4.71,3.2,7.79,3.2c3.65,0,6.04-1.99,6.04-4.65v-0.06
			c0-2.48-1.42-3.81-6.52-4.86c-5.16-1.03-7.19-2.66-7.19-5.71v-0.06c0-3.02,2.87-5.47,6.86-5.47c2.9,0,5.19,0.91,7.19,2.48
			l-0.63,0.82c-1.93-1.54-4.14-2.36-6.61-2.36c-3.47,0-5.77,2.08-5.77,4.44v0.06c0,2.45,1.42,3.81,6.55,4.86
			c5.25,1.06,7.16,2.75,7.16,5.71v0.06c0,3.26-2.81,5.68-7.13,5.68C194.8,138.51,192.05,137.33,189.66,135.12z"/>
		<path class="st0" d="M211.25,129.08v-12.02h1.03v11.96c0,5.62,3.02,8.58,7.61,8.58c4.56,0,7.52-2.84,7.52-8.52v-12.02h1.03v11.93
			c0,6.31-3.47,9.54-8.58,9.54C214.79,138.53,211.25,135.33,211.25,129.08z"/>
		<path class="st0" d="M245.5,117.06h6.89c6.64,0,11.23,4.59,11.23,10.54v0.06c0,5.95-4.59,10.54-11.23,10.54h-6.89V117.06z
			 M252.41,137.27c6.07,0,10.15-4.23,10.15-9.57v-0.06c0-5.35-4.08-9.63-10.18-9.63h-5.86v19.27H252.41z"/>
		<path class="st0" d="M276.91,116.91h0.97l10.03,21.29h-1.12l-2.87-6.16h-13.08l-2.9,6.16h-1.06L276.91,116.91z M283.46,131.11
			l-6.1-12.99l-6.07,12.99H283.46z"/>
		<path class="st0" d="M296.26,118h-7.52v-0.94h16.1V118h-7.55v20.2h-1.03V118z"/>
		<path class="st0" d="M315.68,116.91h0.97l10.03,21.29h-1.12l-2.87-6.16h-13.08l-2.9,6.16h-1.06L315.68,116.91z M322.23,131.11
			l-6.1-12.99l-6.07,12.99H322.23z"/>
		<path class="st0" d="M340.77,135.12l0.69-0.75c2.24,2.11,4.71,3.2,7.79,3.2c3.65,0,6.04-1.99,6.04-4.65v-0.06
			c0-2.48-1.42-3.81-6.52-4.86c-5.16-1.03-7.19-2.66-7.19-5.71v-0.06c0-3.02,2.87-5.47,6.86-5.47c2.9,0,5.19,0.91,7.19,2.48
			l-0.63,0.82c-1.93-1.54-4.14-2.36-6.61-2.36c-3.47,0-5.77,2.08-5.77,4.44v0.06c0,2.45,1.42,3.81,6.55,4.86
			c5.25,1.06,7.16,2.75,7.16,5.71v0.06c0,3.26-2.81,5.68-7.13,5.68C345.91,138.51,343.16,137.33,340.77,135.12z"/>
		<path class="st0" d="M361.76,127.69v-0.06c0-5.95,4.41-10.93,10.45-10.93c3.93,0,6.07,1.45,8.12,3.35l-0.72,0.76
			c-1.75-1.69-3.9-3.17-7.43-3.17c-5.38,0-9.36,4.5-9.36,9.97v0.06c0,5.47,4.05,9.96,9.39,9.96c3.29,0,5.65-1.45,7.52-3.38
			l0.72,0.69c-1.99,2.02-4.56,3.62-8.3,3.62C366.17,138.57,361.76,133.7,361.76,127.69z"/>
		<path class="st0" d="M386.79,117.06h1.03v21.14h-1.03V117.06z"/>
		<path class="st0" d="M396.73,117.06h14.89V118h-13.86v9.09h12.53v0.94h-12.53v9.24h14.01v0.94h-15.04V117.06z"/>
		<path class="st0" d="M418.02,117.06h0.94l15.46,19.39v-19.39h1v21.14h-0.82l-15.58-19.54v19.54h-1V117.06z"/>
		<path class="st0" d="M441.97,127.69v-0.06c0-5.95,4.41-10.93,10.45-10.93c3.93,0,6.07,1.45,8.12,3.35l-0.72,0.76
			c-1.75-1.69-3.89-3.17-7.43-3.17c-5.38,0-9.36,4.5-9.36,9.97v0.06c0,5.47,4.05,9.96,9.39,9.96c3.29,0,5.65-1.45,7.52-3.38
			l0.72,0.69c-1.99,2.02-4.56,3.62-8.3,3.62C446.38,138.57,441.97,133.7,441.97,127.69z"/>
		<path class="st0" d="M466.79,117.06h14.89V118h-13.86v9.09h12.53v0.94h-12.53v9.24h14.01v0.94h-15.04V117.06z"/>
	</g>
</g>
</svg>
