<?xml version="1.0" encoding="UTF-8" standalone="no"?><!DOCTYPE svg PUBLIC "-//W3C//DTD SVG 1.1//EN" "http://www.w3.org/Graphics/SVG/1.1/DTD/svg11.dtd"><svg width="100%" height="100%" viewBox="0 0 569 569" version="1.1" xmlns="http://www.w3.org/2000/svg" xmlns:xlink="http://www.w3.org/1999/xlink" xml:space="preserve" xmlns:serif="http://www.serif.com/" style="fill-rule:evenodd;clip-rule:evenodd;stroke-linecap:round;stroke-linejoin:round;stroke-miterlimit:1.5;"><g id="g6"><path id="path2" d="M18.751,346.82l177.37,0l0,16.451l-44.835,0c-5.073,0 -9.18,4.105 -9.18,9.18c0,5.075 4.107,9.18 9.18,9.18l266.22,0c5.074,0 9.18,-4.105 9.18,-9.18c0,-5.075 -4.105,-9.18 -9.18,-9.18l-44.834,0l0,-16.451l76.561,0c-0.104,5.146 -0.209,10.301 -0.312,15.447c-0.098,5.055 3.77,10.863 8.984,11.805c13.348,2.406 30.428,20.863 38.525,30.693c-16.529,5.262 -28.6,52.234 -28.6,71.646c0,23.66 17.914,36.719 40.008,36.719c22.094,0 40.006,-13.059 40.006,-36.719c0,-15.863 -5.771,-60.049 -30.043,-67.865c-11.047,-20.752 -28.635,-50.881 -44.223,-55.783c0.043,-1.982 0.08,-3.961 0.121,-5.943l76.336,0c10.355,0 18.752,-8.396 18.752,-18.752l0,-278.141c0,-10.355 -8.396,-18.751 -18.752,-18.751l-531.284,0c-10.355,0 -18.751,8.396 -18.751,18.751l0,278.141c0,10.356 8.396,18.752 18.751,18.752Zm8.305,-273.484c0,-8.611 7.595,-15.594 16.965,-15.594l480.745,-0c9.369,-0 16.965,6.983 16.965,15.594l0,231.33c0,8.611 -7.596,15.594 -16.965,15.594l-480.745,-0c-9.37,-0 -16.965,-6.982 -16.965,-15.594l0,-231.33Z" style="fill:#fdd023;fill-rule:nonzero;"/><path id="path4" d="M441.631,519.252l-18.359,-89.762c-0,-10.141 -8.219,-18.361 -18.359,-18.361l-344.766,-0c-10.141,-0 -18.36,8.221 -18.36,18.361l-12.24,89.762c-0,10.141 8.219,18.359 18.36,18.359l375.358,-0c10.141,-0 18.366,-8.218 18.366,-18.359Z" style="fill:#fdd023;fill-rule:nonzero;"/><g><path d="M453.263,91.783l-184.21,0l0,105.465l125.432,-0" style="fill:none;stroke:#461d7c;stroke-width:25px;"/><path d="M265.63,143.785l-132.368,-0l0,140.5l382.417,0" style="fill:none;stroke:#461d7c;stroke-width:25px;"/><path d="M127.53,211.422l-78.462,-0l78.462,-0Z" style="fill:none;stroke:#461d7c;stroke-width:25px;"/></g><text x="123.12px" y="466.959px" style="font-family:'HelveticaNeue-Thin', 'Helvetica Neue', sans-serif;font-weight:200;font-size:50px;fill:#461d7c;">Br<tspan x="167.92px 194.77px " y="466.959px 466.959px ">ow</tspan>n Lab</text><text x="69.797px" y="515.664px" style="font-family:'HelveticaNeue-Thin', 'Helvetica Neue', sans-serif;font-weight:200;font-size:37.5px;fill:#461d7c;">phyleauxgenetics.or<tspan x="379.96px " y="515.664px ">g</tspan></text></g></svg>